<?xml version="1.0" encoding="utf-8"?>
<!-- Generator: Adobe Illustrator 23.0.3, SVG Export Plug-In . SVG Version: 6.00 Build 0)  -->
<svg version="1.1" id="Layer_4" xmlns="http://www.w3.org/2000/svg" xmlns:xlink="http://www.w3.org/1999/xlink" x="0px" y="0px"
	 viewBox="0 0 315 500" style="enable-background:new 0 0 315 500;" xml:space="preserve">
<style type="text/css">
	.st0{fill:#747875;}
	.st1{fill:#A7ACA8;}
	.st2{fill:#E66509;}
	.st3{fill:#803B3B;}
	.st4{fill:#DFD0D7;stroke:#A89DA2;stroke-width:0.9169;stroke-miterlimit:10;}
	.st5{fill:#68463D;}
	.st6{fill:#DFD0D7;}
	.st7{fill:#1E090E;}
	.st8{fill:#E39E2F;}
	.st9{fill:#595959;}
	.st10{fill:#878787;}
	.st11{fill:#BDBDBD;}
	.st12{fill:#85877D;}
	.st13{fill:#4D3535;}
	.st14{fill:none;stroke:#524326;stroke-width:0.5274;stroke-miterlimit:10;}
	.st15{fill:#FAEBD8;}
	.st16{fill:#ABA194;}
</style>
<g>
	<g>
		
			<rect x="238.7" y="45.2" transform="matrix(0.3758 -0.9267 0.9267 0.3758 104.3412 253.1472)" class="st0" width="2.9" height="7.8"/>
		<g>
			<path class="st1" d="M236.1,46.8c2.3,0.9,3.5,3.6,2.5,5.9c-0.9,2.3-3.6,3.5-5.9,2.5c-2.3-0.9-3.5-3.6-2.5-5.9
				C231.1,47,233.8,45.9,236.1,46.8z"/>
			<path class="st1" d="M238.8,40.1c2.3,0.9,3.5,3.6,2.5,5.9c-0.9,2.3-3.6,3.5-5.9,2.5c-2.3-0.9-3.5-3.6-2.5-5.9
				C233.9,40.2,236.5,39.1,238.8,40.1z"/>
			<path class="st1" d="M233.6,41.3c2.3,0.9,3.5,3.6,2.5,5.9c-0.9,2.3-3.6,3.5-5.9,2.5c-2.3-0.9-3.5-3.6-2.5-5.9
				C228.6,41.5,231.2,40.3,233.6,41.3z"/>
		</g>
	</g>
	<g>
		
			<rect x="249" y="20.9" transform="matrix(0.3758 -0.9267 0.9267 0.3758 133.3223 247.6316)" class="st0" width="2.9" height="7.8"/>
		<g>
			<path class="st1" d="M246.5,22.5c2.3,0.9,3.5,3.6,2.5,5.9c-0.9,2.3-3.6,3.5-5.9,2.5c-2.3-0.9-3.5-3.6-2.5-5.9
				C241.5,22.7,244.2,21.6,246.5,22.5z"/>
			<path class="st1" d="M249.2,15.8c2.3,0.9,3.5,3.6,2.5,5.9c-0.9,2.3-3.6,3.5-5.9,2.5c-2.3-0.9-3.5-3.6-2.5-5.9
				C244.3,16,246.9,14.8,249.2,15.8z"/>
			<path class="st1" d="M244,17c2.3,0.9,3.5,3.6,2.5,5.9c-0.9,2.3-3.6,3.5-5.9,2.5c-2.3-0.9-3.5-3.6-2.5-5.9
				C239,17.2,241.6,16.1,244,17z"/>
		</g>
	</g>
	<g>
		
			<rect x="276.8" y="61.5" transform="matrix(0.4116 -0.9114 0.9114 0.4116 104.0415 292.0458)" class="st0" width="2.9" height="7.8"/>
		<g>
			<path class="st1" d="M282.6,66.7c-2.3-1-5,0-6,2.3c-1,2.3,0,5,2.3,6c2.3,1,5,0,6-2.3C285.9,70.5,284.9,67.8,282.6,66.7z"/>
			<path class="st1" d="M285.6,60.1c-2.3-1-5,0-6,2.3c-1,2.3,0,5,2.3,6c2.3,1,5,0,6-2.3C288.9,63.8,287.9,61.1,285.6,60.1z"/>
			<path class="st1" d="M288.4,64.8c-2.3-1-5,0-6,2.3c-1,2.3,0,5,2.3,6c2.3,1,5,0,6-2.3C291.7,68.5,290.7,65.8,288.4,64.8z"/>
		</g>
	</g>
	<g>
		
			<rect x="287.2" y="37.3" transform="matrix(0.4116 -0.9114 0.9114 0.4116 132.2809 287.2418)" class="st0" width="2.9" height="7.8"/>
		<g>
			<path class="st1" d="M293,42.5c-2.3-1-5,0-6,2.3c-1,2.3,0,5,2.3,6c2.3,1,5,0,6-2.3C296.3,46.2,295.3,43.5,293,42.5z"/>
			<path class="st1" d="M296,35.8c-2.3-1-5,0-6,2.3c-1,2.3,0,5,2.3,6c2.3,1,5,0,6-2.3C299.3,39.6,298.3,36.9,296,35.8z"/>
			<path class="st1" d="M298.8,40.5c-2.3-1-5,0-6,2.3c-1,2.3,0,5,2.3,6c2.3,1,5,0,6-2.3C302.1,44.2,301.1,41.5,298.8,40.5z"/>
		</g>
	</g>
	<path class="st2" d="M192.5,399.7c0,0-17.4-28-0.7-42.9c0,0,24-17.1,24-34.3c0,0,3.2-9.9-8.7-14c0,0-4.5-0.9-12.1,4.1
		c0,0-25.3,14.6-26.8-9.5l-10.7-4.6l-2.1-0.9l-10.7-4.6c-18.4,15.6-25.4-12.8-25.4-12.8c-1.5-9-5.3-11.6-5.3-11.6
		c-11.2-5.8-16.1,3.4-16.1,3.4c-12.4,11.8-8.3,41-8.3,41c0.7,22.3-31.6,29.1-31.6,29.1c-42.2,19.6-39.6,60.4-39.6,60.4
		c3.4,54.2,55.5,70.8,62.1,72.7c5.9,3.4,53.9,29.7,95.5-5.2C176.1,470.1,207.4,443.8,192.5,399.7z"/>
	<path class="st3" d="M132.6,316.6L241.3,74.9l19.9,8.5L159.4,330.1C159.4,330.1,142.2,329.2,132.6,316.6z"/>
	<path d="M293.5,19c0,0-6.7-1.4-6.9-6.9c0,0-1.8-4.5-5-6.4l0-0.1c-0.1-0.1-0.3-0.1-0.5-0.1c-0.1-0.1-0.3-0.2-0.4-0.2l0,0.1
		c-3.6-1-8.1,0.8-8.1,0.8c-4,3.7-9.7-0.2-9.7-0.2c-7.3-1.2-7.1,5.3-7.1,5.3c-2.4,21.5-17.6,50.2-17.6,50.2
		c7.9,7.8,2.8,17.4,2.8,17.4l6.8,3.4l0,0l0.4,0.2l0.4,0.2l0,0l7.1,2.6c0,0,3.4-10.3,14.5-9.9c0,0,10.3-30.9,24.2-47.4
		C294.6,27.8,299.4,23.4,293.5,19z"/>
	<path class="st4" d="M87.4,431.6c0,0-2.3-8.3,0.8-16.8l5.6-11.8c0,0,3.6-3.8,8.1-2.9c0,0,10.7,3.6,15.5,2.7c0,0,10.9,0.8,8.7,8.2
		c0,0-8.7,22.7-17.1,27.4C109,438.4,97.4,444.7,87.4,431.6z"/>
	<path class="st4" d="M96.5,430.8c-0.7,1.7-2.7,2.5-4.4,1.8c-1.7-0.7-2.5-2.7-1.8-4.4c0.7-1.7,2.7-2.5,4.4-1.8
		C96.5,427.1,97.2,429.1,96.5,430.8z"/>
	<path class="st4" d="M105.6,434.7c-0.7,1.7-2.7,2.5-4.4,1.8c-1.7-0.7-2.5-2.7-1.8-4.4c0.7-1.7,2.7-2.5,4.4-1.8
		C105.6,431,106.3,433,105.6,434.7z"/>
	
		<rect x="94.2" y="407.3" transform="matrix(0.3938 -0.9192 0.9192 0.3938 -318.8472 337.4598)" class="st5" width="4.5" height="6.3"/>
	
		<rect x="101.7" y="406.6" transform="matrix(0.3938 -0.9192 0.9192 0.3938 -313.6443 343.9153)" class="st5" width="4.5" height="6.3"/>
	
		<rect x="109.7" y="406.6" transform="matrix(0.3938 -0.9192 0.9192 0.3938 -308.8064 351.2622)" class="st5" width="4.5" height="6.3"/>
	
		<rect x="118" y="405.7" transform="matrix(0.3938 -0.9192 0.9192 0.3938 -302.9001 358.4295)" class="st5" width="4.5" height="6.3"/>
	<g>
		<rect x="125.4" y="310.3" transform="matrix(0.3938 -0.9192 0.9192 0.3938 -220.5009 331.3203)" width="31.1" height="45"/>
		
			<rect x="127.7" y="313.6" transform="matrix(0.3938 -0.9192 0.9192 0.3938 -220.5001 331.3195)" class="st6" width="26.6" height="38.5"/>
		
			<rect x="129.5" y="316.2" transform="matrix(0.3938 -0.9192 0.9192 0.3938 -220.5001 331.3195)" class="st4" width="23" height="33.3"/>
		<rect x="133.4" y="322.1" transform="matrix(0.3938 -0.9192 0.9192 0.3938 -223.1824 331.8035)" width="13.1" height="26.1"/>
		<path class="st4" d="M133.7,328.5c-0.3,0.8-1.2,1.1-2,0.8c-0.8-0.3-1.1-1.2-0.8-2c0.3-0.8,1.2-1.1,2-0.8
			C133.6,326.8,134,327.7,133.7,328.5z"/>
		<path class="st4" d="M140,331.2c-0.3,0.8-1.2,1.1-2,0.8c-0.8-0.3-1.1-1.2-0.8-2c0.3-0.8,1.2-1.1,2-0.8
			C140,329.6,140.3,330.4,140,331.2z"/>
		<path class="st4" d="M146.3,333.9c-0.3,0.8-1.2,1.1-2,0.8c-0.8-0.3-1.1-1.2-0.8-2c0.3-0.8,1.2-1.1,2-0.8
			C146.3,332.3,146.7,333.2,146.3,333.9z"/>
		<path class="st4" d="M152.7,336.6c-0.3,0.8-1.2,1.1-2,0.8c-0.8-0.3-1.1-1.2-0.8-2c0.3-0.8,1.2-1.1,2-0.8
			C152.7,335,153,335.9,152.7,336.6z"/>
	</g>
	<g>
		<rect x="104.9" y="358.3" transform="matrix(0.3938 -0.9192 0.9192 0.3938 -277.075 341.5151)" width="31.1" height="45"/>
		
			<rect x="107.1" y="361.6" transform="matrix(0.3938 -0.9192 0.9192 0.3938 -277.0762 341.5148)" class="st6" width="26.6" height="38.5"/>
		
			<rect x="108.9" y="364.2" transform="matrix(0.3938 -0.9192 0.9192 0.3938 -277.0762 341.5148)" class="st4" width="23" height="33.3"/>
		<rect x="112.9" y="370" transform="matrix(0.3938 -0.9192 0.9192 0.3938 -279.7576 341.9985)" width="13.1" height="26.1"/>
		<path class="st4" d="M113.1,376.5c-0.3,0.8-1.2,1.1-2,0.8c-0.8-0.3-1.1-1.2-0.8-2c0.3-0.8,1.2-1.1,2-0.8
			C113.1,374.8,113.4,375.7,113.1,376.5z"/>
		<path class="st4" d="M119.4,379.2c-0.3,0.8-1.2,1.1-2,0.8c-0.8-0.3-1.1-1.2-0.8-2c0.3-0.8,1.2-1.1,2-0.8
			C119.4,377.6,119.8,378.4,119.4,379.2z"/>
		<path class="st4" d="M125.8,381.9c-0.3,0.8-1.2,1.1-2,0.8c-0.8-0.3-1.1-1.2-0.8-2c0.3-0.8,1.2-1.1,2-0.8
			C125.8,380.3,126.1,381.2,125.8,381.9z"/>
		<path class="st4" d="M132.1,384.6c-0.3,0.8-1.2,1.1-2,0.8c-0.8-0.3-1.1-1.2-0.8-2c0.3-0.8,1.2-1.1,2-0.8
			C132.1,383,132.5,383.9,132.1,384.6z"/>
	</g>
	<path class="st7" d="M160.1,382.6c0,0-5.7,4.1-6.5-1.5c0,0,0.3-6.1,6.3-3.2c0,0,7.6,4.3,6.8,14.7c0,0-0.5,18,1.5,20.9
		c0,0-14.8,20.1-6.5,30.5c0,0,1.7-3.2,4.8-1.2c0,0,3.9,2.3,1.2,6.4c0,0-6.1,5.2-10.7-3.3c0,0-2.6-15.2,0.2-24.1c0,0,1.1-5.7-0.5-8.7
		c0,0,3-1.7,4.1-11C160.6,402,162.9,394.2,160.1,382.6z"/>
	<path class="st7" d="M91.2,353.1c0,0,0.9,6.9,5.6,3.7c0,0,4.2-4.4-2-6.7c0,0-8.4-2.6-15.3,5.2c0,0-12.7,12.8-16.2,13.3
		c0,0-4.3,24.6-17.6,25.8c0,0,1.1-3.4-2.4-4.3c0,0-4.4-1.2-5.4,3.5c0,0,0.5,8,9.7,5.5c0,0,12.8-8.6,17.3-16.7c0,0,3.3-4.8,6.7-5.6
		c0,0-0.9-3.3,5.2-10.5C76.8,366.2,80.8,359.1,91.2,353.1z"/>
	<circle class="st4" cx="196.3" cy="329.2" r="3.6"/>
	<path class="st8" d="M198.5,330.2c-0.5,1.2-1.9,1.8-3.2,1.3c-1.2-0.5-1.8-1.9-1.3-3.1c0.5-1.2,1.9-1.8,3.2-1.3
		C198.5,327.5,199.1,329,198.5,330.2z"/>
	<g>
		<path class="st9" d="M184,421.4c-1.4,3.3-5.2,4.8-8.5,3.4c-3.3-1.4-4.8-5.2-3.4-8.5c1.4-3.3,5.2-4.8,8.5-3.4
			C183.8,414.3,185.4,418.1,184,421.4z"/>
		<path class="st10" d="M182,420.5c-0.9,2.2-3.5,3.2-5.7,2.3c-2.2-0.9-3.2-3.5-2.3-5.7c0.9-2.2,3.5-3.2,5.7-2.3
			C182,415.8,183,418.3,182,420.5z"/>
		<path class="st11" d="M180.9,420.1c-0.7,1.6-2.5,2.3-4.1,1.7c-1.6-0.7-2.3-2.5-1.7-4.1c0.7-1.6,2.5-2.3,4.1-1.7
			C180.9,416.6,181.6,418.5,180.9,420.1z"/>
	</g>
	<g>
		<path class="st9" d="M187.5,449c-1.4,3.3-5.2,4.8-8.5,3.4c-3.3-1.4-4.8-5.2-3.4-8.5c1.4-3.3,5.2-4.8,8.5-3.4
			C187.4,441.9,188.9,445.7,187.5,449z"/>
		<path class="st10" d="M185.5,448.1c-0.9,2.2-3.5,3.2-5.7,2.3c-2.2-0.9-3.2-3.5-2.3-5.7c0.9-2.2,3.5-3.2,5.7-2.3
			C185.5,443.4,186.5,445.9,185.5,448.1z"/>
		<path class="st11" d="M184.4,447.7c-0.7,1.6-2.5,2.3-4.1,1.7c-1.6-0.7-2.3-2.5-1.7-4.1c0.7-1.6,2.5-2.3,4.1-1.7
			C184.4,444.2,185.1,446.1,184.4,447.7z"/>
	</g>
	<g>
		<path class="st9" d="M150.4,453.3c-1.4,3.3-5.2,4.8-8.5,3.4c-3.3-1.4-4.8-5.2-3.4-8.5c1.4-3.3,5.2-4.8,8.5-3.4
			C150.2,446.3,151.8,450,150.4,453.3z"/>
		<path class="st10" d="M148.4,452.5c-0.9,2.2-3.5,3.2-5.7,2.3c-2.2-0.9-3.2-3.5-2.3-5.7c0.9-2.2,3.5-3.2,5.7-2.3
			C148.4,447.7,149.4,450.3,148.4,452.5z"/>
		<path class="st11" d="M147.3,452c-0.7,1.6-2.5,2.3-4.1,1.7c-1.6-0.7-2.3-2.5-1.7-4.1c0.7-1.6,2.5-2.3,4.1-1.7
			C147.3,448.6,148,450.4,147.3,452z"/>
	</g>
	<g>
		<path class="st9" d="M149.1,425.7c-1.4,3.3-5.2,4.8-8.5,3.4c-3.3-1.4-4.8-5.2-3.4-8.5c1.4-3.3,5.2-4.8,8.5-3.4
			C149,418.6,150.5,422.4,149.1,425.7z"/>
		<path class="st10" d="M147.2,424.9c-0.9,2.2-3.5,3.2-5.7,2.3c-2.2-0.9-3.2-3.5-2.3-5.7c0.9-2.2,3.5-3.2,5.7-2.3
			C147.1,420.1,148.2,422.7,147.2,424.9z"/>
		<path class="st11" d="M146.1,424.4c-0.7,1.6-2.5,2.3-4.1,1.7c-1.6-0.7-2.3-2.5-1.7-4.1c0.7-1.6,2.5-2.3,4.1-1.7
			C146,420.9,146.8,422.8,146.1,424.4z"/>
	</g>
	<g>
		
			<rect x="210.3" y="158.7" transform="matrix(0.3938 -0.9192 0.9192 0.3938 -29.8876 298.0726)" class="st12" width="1.4" height="26"/>
		
			<rect x="214.5" y="149.1" transform="matrix(0.3938 -0.9192 0.9192 0.3938 -18.5444 296.0285)" class="st12" width="1.4" height="26"/>
		
			<rect x="218.3" y="140.2" transform="matrix(0.3938 -0.9192 0.9192 0.3938 -8.0326 294.1342)" class="st12" width="1.4" height="26"/>
		
			<rect x="222.4" y="131.7" transform="matrix(0.3938 -0.9192 0.9192 0.3938 2.5455 292.6121)" class="st12" width="1.4" height="25.3"/>
		
			<rect x="228.3" y="118.5" transform="matrix(0.3938 -0.9192 0.9192 0.3938 18.3384 289.898)" class="st12" width="1.4" height="25"/>
		
			<rect x="232.2" y="109.4" transform="matrix(0.3938 -0.9192 0.9192 0.3938 29.1251 287.9543)" class="st12" width="1.4" height="25"/>
		
			<rect x="239.1" y="93.2" transform="matrix(0.3938 -0.9192 0.9192 0.3938 48.2123 284.5146)" class="st12" width="1.4" height="25"/>
		
			<rect x="244.4" y="80.7" transform="matrix(0.3938 -0.9192 0.9192 0.3938 62.8742 281.8725)" class="st12" width="1.4" height="25"/>
		
			<rect x="200.9" y="180.6" transform="matrix(0.3938 -0.9192 0.9192 0.3938 -55.7878 302.9555)" class="st12" width="1.7" height="26.4"/>
		
			<rect x="205.2" y="170.7" transform="matrix(0.3938 -0.9192 0.9192 0.3938 -44.189 300.9147)" class="st12" width="1.7" height="26.4"/>
		
			<rect x="196.2" y="191.2" transform="matrix(0.3938 -0.9192 0.9192 0.3938 -68.1908 305.0587)" class="st12" width="1.9" height="26.1"/>
		
			<rect x="189.1" y="207.9" transform="matrix(0.3938 -0.9192 0.9192 0.3938 -88.1402 309.0505)" class="st12" width="2.3" height="26.8"/>
		
			<rect x="183.7" y="219.2" transform="matrix(0.3938 -0.9192 0.9192 0.3938 -102.4111 311.3563)" class="st12" width="2.3" height="28.2"/>
		
			<rect x="178.4" y="230.3" transform="matrix(0.3938 -0.9192 0.9192 0.3938 -115.9868 313.5323)" class="st12" width="2.6" height="28.7"/>
		
			<rect x="171.8" y="245.8" transform="matrix(0.3938 -0.9192 0.9192 0.3938 -134.2357 316.8209)" class="st12" width="2.6" height="28.7"/>
		
			<rect x="175" y="238.2" transform="matrix(0.3938 -0.9192 0.9192 0.3938 -125.2801 315.207)" class="st12" width="2.6" height="28.7"/>
		
			<rect x="165.4" y="260.7" transform="matrix(0.3938 -0.9192 0.9192 0.3938 -151.8103 319.9879)" class="st12" width="2.6" height="28.7"/>
		
			<rect x="168.6" y="253.1" transform="matrix(0.3938 -0.9192 0.9192 0.3938 -142.8545 318.374)" class="st12" width="2.6" height="28.7"/>
		
			<rect x="162.7" y="267" transform="matrix(0.3938 -0.9192 0.9192 0.3938 -159.1804 321.316)" class="st12" width="2.6" height="28.7"/>
		
			<rect x="159.5" y="274.4" transform="matrix(0.3938 -0.9192 0.9192 0.3938 -167.9853 322.9026)" class="st12" width="2.6" height="28.7"/>
		<path class="st13" d="M161.3,293.3c-0.5,1.2-1.9,1.8-3,1.3c-1.1-0.5-1.6-1.9-1.1-3.1c0.5-1.2,1.9-1.8,3-1.4
			C161.3,290.7,161.8,292.1,161.3,293.3z"/>
		<path class="st13" d="M167.4,279c-0.5,1.2-1.9,1.8-3,1.4c-1.1-0.5-1.6-1.9-1.1-3.1c0.5-1.2,1.9-1.8,3-1.3
			C167.5,276.4,168,277.8,167.4,279z"/>
		<path class="st13" d="M173.5,264.7c-0.5,1.2-1.9,1.8-3,1.3c-1.1-0.5-1.6-1.9-1.1-3.1c0.5-1.2,1.9-1.8,3-1.3
			C173.6,262.1,174.1,263.5,173.5,264.7z"/>
		<path class="st13" d="M180.2,249.1c-0.5,1.2-1.9,1.8-3,1.3c-1.1-0.5-1.6-1.9-1.1-3.1c0.5-1.2,1.9-1.8,3-1.3
			C180.3,246.4,180.8,247.8,180.2,249.1z"/>
		<path class="st13" d="M210.2,179.1c-0.5,1.2-1.9,1.8-3,1.3c-1.1-0.5-1.6-1.9-1.1-3.1c0.5-1.2,1.9-1.8,3-1.3
			C210.2,176.5,210.7,177.9,210.2,179.1z"/>
		<path class="st13" d="M219.1,158.4c-0.5,1.2-1.9,1.8-3,1.3c-1.1-0.5-1.6-1.9-1.1-3.1c0.5-1.2,1.9-1.8,3-1.3
			C219.1,155.7,219.6,157.1,219.1,158.4z"/>
		<path class="st13" d="M227.5,138.9c-0.5,1.2-1.9,1.8-3,1.3c-1.1-0.5-1.6-1.9-1.1-3.1c0.5-1.2,1.9-1.8,3-1.3
			C227.5,136.2,228,137.6,227.5,138.9z"/>
		<path class="st13" d="M237.2,116.1c-0.5,1.2-1.9,1.8-3,1.3c-1.1-0.5-1.6-1.9-1.1-3.1c0.5-1.2,1.9-1.8,3-1.3
			C237.2,113.5,237.7,114.9,237.2,116.1z"/>
		<path class="st13" d="M189.8,211.9c-0.5,1.2-1.9,1.8-3,1.3c-1.1-0.5-1.6-1.9-1.1-3.1c0.5-1.2,1.9-1.8,3-1.3
			C189.8,209.3,190.3,210.7,189.8,211.9z"/>
		<path class="st13" d="M201.4,216.9c-0.5,1.2-1.9,1.8-3,1.3c-1.1-0.5-1.6-1.9-1.1-3.1c0.5-1.2,1.9-1.8,3-1.3
			C201.4,214.2,201.9,215.6,201.4,216.9z"/>
		<line class="st14" x1="248.6" y1="58" x2="113.2" y2="373.9"/>
		<line class="st14" x1="264.1" y1="31.5" x2="118.9" y2="376.7"/>
		<line class="st14" x1="273.8" y1="34.8" x2="124.9" y2="378.6"/>
		<line class="st14" x1="267.5" y1="64" x2="130.2" y2="382.2"/>
	</g>
	<path class="st15" d="M264.5,30.8c-1,2.4-3.8,3.5-6.2,2.5c-2.4-1-3.5-3.8-2.5-6.2c1-2.4,3.8-3.5,6.2-2.5
		C264.4,25.6,265.5,28.4,264.5,30.8z"/>
	<path class="st16" d="M262.8,30.1c-0.6,1.5-2.4,2.2-3.8,1.5c-1.5-0.6-2.2-2.4-1.5-3.8c0.6-1.5,2.4-2.2,3.8-1.5
		C262.8,26.9,263.4,28.6,262.8,30.1z"/>
	<path class="st15" d="M282.5,38.5c-1,2.4-3.8,3.5-6.2,2.5c-2.4-1-3.5-3.8-2.5-6.2c1-2.4,3.8-3.5,6.2-2.5
		C282.4,33.3,283.5,36.1,282.5,38.5z"/>
	<path class="st16" d="M280.8,37.8c-0.6,1.5-2.4,2.2-3.8,1.5c-1.5-0.6-2.2-2.4-1.5-3.8c0.6-1.5,2.4-2.2,3.8-1.5
		C280.8,34.6,281.4,36.3,280.8,37.8z"/>
	<path class="st15" d="M272.4,61.9c-1,2.4-3.8,3.5-6.2,2.5c-2.4-1-3.5-3.8-2.5-6.2c1-2.4,3.8-3.5,6.2-2.5
		C272.4,56.7,273.5,59.5,272.4,61.9z"/>
	<path class="st16" d="M270.8,61.1c-0.6,1.5-2.4,2.2-3.8,1.5c-1.5-0.6-2.2-2.4-1.5-3.8c0.6-1.5,2.4-2.2,3.8-1.5
		C270.7,57.9,271.4,59.7,270.8,61.1z"/>
	<path class="st15" d="M254.9,54.3c-1,2.4-3.8,3.5-6.2,2.5c-2.4-1-3.5-3.8-2.5-6.2c1-2.4,3.8-3.5,6.2-2.5
		C254.8,49.1,255.9,51.9,254.9,54.3z"/>
	<path class="st16" d="M253.2,53.6c-0.6,1.5-2.4,2.2-3.8,1.5c-1.5-0.6-2.2-2.4-1.5-3.8c0.6-1.5,2.4-2.2,3.8-1.5
		C253.2,50.4,253.8,52.1,253.2,53.6z"/>
</g>
</svg>
