<?xml version="1.0" encoding="utf-8"?>
<!-- Generator: Adobe Illustrator 23.0.3, SVG Export Plug-In . SVG Version: 6.00 Build 0)  -->
<svg version="1.1" id="Layer_1" xmlns="http://www.w3.org/2000/svg" xmlns:xlink="http://www.w3.org/1999/xlink" x="0px" y="0px"
	 viewBox="0 0 297 297" style="enable-background:new 0 0 297 297;" xml:space="preserve">
<style type="text/css">
	.st0{fill:#FFFFFF;}
</style>
<g>
	<g>
		<g>
			<path class="st0" d="M280.2,39.2H16.8C7.5,39.2,0,46.7,0,56v24.3c0,9.3,7.5,16.8,16.8,16.8h263.4c9.3,0,16.8-7.5,16.8-16.8V56
				C297,46.7,289.5,39.2,280.2,39.2z"/>
			<path class="st0" d="M280.2,119.5H16.8c-9.3,0-16.8,7.5-16.8,16.8v24.3c0,9.3,7.5,16.8,16.8,16.8h263.4c9.3,0,16.8-7.5,16.8-16.8
				v-24.3C297,127.1,289.5,119.5,280.2,119.5z"/>
			<path class="st0" d="M280.2,199.9H16.8c-9.3,0-16.8,7.5-16.8,16.8V241c0,9.3,7.5,16.8,16.8,16.8h263.4c9.3,0,16.8-7.5,16.8-16.8
				v-24.3C297,207.4,289.5,199.9,280.2,199.9z"/>
		</g>
	</g>
</g>
</svg>
