<?xml version="1.0" encoding="utf-8"?>
<!-- Generator: Adobe Illustrator 23.0.3, SVG Export Plug-In . SVG Version: 6.00 Build 0)  -->
<svg version="1.1" id="Capa_1" xmlns="http://www.w3.org/2000/svg" xmlns:xlink="http://www.w3.org/1999/xlink" x="0px" y="0px"
	 viewBox="0 0 1081.3 421.4" style="enable-background:new 0 0 1081.3 421.4;" xml:space="preserve">
<style type="text/css">
	.st0{fill-rule:evenodd;clip-rule:evenodd;fill:#989898;}
	.st1{fill-rule:evenodd;clip-rule:evenodd;fill:#4E4E4E;}
	.st2{fill-rule:evenodd;clip-rule:evenodd;fill:#E6E6E5;}
	.st3{fill-rule:evenodd;clip-rule:evenodd;fill:#CBCBCB;}
	.st4{fill-rule:evenodd;clip-rule:evenodd;fill:#807F7F;}
	.st5{fill-rule:evenodd;clip-rule:evenodd;fill:#828282;}
	.st6{fill-rule:evenodd;clip-rule:evenodd;fill:#363636;}
	.st7{fill-rule:evenodd;clip-rule:evenodd;fill:#1F1F1F;}
	.st8{fill-rule:evenodd;clip-rule:evenodd;fill:#EBEBEA;}
</style>
<g>
	<path class="st0" d="M43.9,12.3H1033c10.9,0,19.9,9.7,19.9,21.6v351.8c0,11.9-8.9,21.6-19.9,21.6H43.9c-10.9,0-19.9-9.7-19.9-21.6
		V33.8C24,22,32.9,12.3,43.9,12.3"/>
	<path class="st1" d="M99.4,192.6h878.1c13.3,0,24.2,11.8,24.2,26.3v185.8c0,1.4-1,2.5-2.3,2.5H77.4c-1.3,0-2.3-1.1-2.3-2.5V218.9
		C75.1,204.5,86,192.6,99.4,192.6"/>
	<path class="st2" d="M107.1,207.3h22.1c4.2,0,7.6,3.7,7.6,8.3V399c0,4.5-3.4,8.3-7.6,8.3h-22.1c-4.2,0-7.6-3.7-7.6-8.3V215.6
		C99.5,211.1,102.9,207.3,107.1,207.3"/>
	<path class="st2" d="M145.3,207.3h22.1c4.2,0,7.6,3.7,7.6,8.3V399c0,4.5-3.4,8.3-7.6,8.3h-22.1c-4.2,0-7.6-3.7-7.6-8.3V215.6
		C137.7,211.1,141.1,207.3,145.3,207.3"/>
	<path class="st2" d="M183.5,207.3h22.1c4.2,0,7.6,3.7,7.6,8.3V399c0,4.5-3.4,8.3-7.6,8.3h-22.1c-4.2,0-7.6-3.7-7.6-8.3V215.6
		C175.9,211.1,179.3,207.3,183.5,207.3"/>
	<path class="st2" d="M221.7,207.3h22.1c4.2,0,7.6,3.7,7.6,8.3V399c0,4.5-3.4,8.3-7.6,8.3h-22.1c-4.2,0-7.6-3.7-7.6-8.3V215.6
		C214.1,211.1,217.5,207.3,221.7,207.3"/>
	<path class="st2" d="M259.9,207.3H282c4.2,0,7.6,3.7,7.6,8.3V399c0,4.5-3.4,8.3-7.6,8.3h-22.1c-4.2,0-7.6-3.7-7.6-8.3V215.6
		C252.3,211.1,255.7,207.3,259.9,207.3"/>
	<path class="st2" d="M298.1,207.3h22.1c4.2,0,7.6,3.7,7.6,8.3V399c0,4.5-3.4,8.3-7.6,8.3h-22.1c-4.2,0-7.6-3.7-7.6-8.3V215.6
		C290.5,211.1,293.9,207.3,298.1,207.3"/>
	<path class="st2" d="M336.3,207.3h22.1c4.2,0,7.6,3.7,7.6,8.3V399c0,4.5-3.4,8.3-7.6,8.3h-22.1c-4.2,0-7.6-3.7-7.6-8.3V215.6
		C328.7,211.1,332.1,207.3,336.3,207.3"/>
	<path class="st2" d="M374.5,207.3h22.1c4.2,0,7.6,3.7,7.6,8.3V399c0,4.5-3.4,8.3-7.6,8.3h-22.1c-4.2,0-7.6-3.7-7.6-8.3V215.6
		C366.9,211.1,370.3,207.3,374.5,207.3"/>
	<path class="st2" d="M412.7,207.3h22.1c4.2,0,7.6,3.7,7.6,8.3V399c0,4.5-3.4,8.3-7.6,8.3h-22.1c-4.2,0-7.6-3.7-7.6-8.3V215.6
		C405.1,211.1,408.5,207.3,412.7,207.3"/>
	<path class="st2" d="M450.9,207.3h22.1c4.2,0,7.6,3.7,7.6,8.3V399c0,4.5-3.4,8.3-7.6,8.3h-22.1c-4.2,0-7.6-3.7-7.6-8.3V215.6
		C443.3,211.1,446.8,207.3,450.9,207.3"/>
	<path class="st2" d="M489.1,207.3h22.1c4.2,0,7.6,3.7,7.6,8.3V399c0,4.5-3.4,8.3-7.6,8.3h-22.1c-4.2,0-7.6-3.7-7.6-8.3V215.6
		C481.5,211.1,485,207.3,489.1,207.3"/>
	<path class="st2" d="M527.3,207.3h22.1c4.2,0,7.6,3.7,7.6,8.3V399c0,4.5-3.4,8.3-7.6,8.3h-22.1c-4.2,0-7.6-3.7-7.6-8.3V215.6
		C519.7,211.1,523.2,207.3,527.3,207.3"/>
	<path class="st2" d="M565.6,207.3h22.1c4.2,0,7.6,3.7,7.6,8.3V399c0,4.5-3.4,8.3-7.6,8.3h-22.1c-4.2,0-7.6-3.7-7.6-8.3V215.6
		C557.9,211.1,561.4,207.3,565.6,207.3"/>
	<path class="st2" d="M603.8,207.3h22.1c4.2,0,7.6,3.7,7.6,8.3V399c0,4.5-3.4,8.3-7.6,8.3h-22.1c-4.2,0-7.6-3.7-7.6-8.3V215.6
		C596.2,211.1,599.6,207.3,603.8,207.3"/>
	<path class="st2" d="M642,207.3h22.1c4.2,0,7.6,3.7,7.6,8.3V399c0,4.5-3.4,8.3-7.6,8.3H642c-4.2,0-7.6-3.7-7.6-8.3V215.6
		C634.4,211.1,637.8,207.3,642,207.3"/>
	<path class="st2" d="M680.2,207.3h22.1c4.2,0,7.6,3.7,7.6,8.3V399c0,4.5-3.4,8.3-7.6,8.3h-22.1c-4.2,0-7.6-3.7-7.6-8.3V215.6
		C672.6,211.1,676,207.3,680.2,207.3"/>
	<path class="st2" d="M718.4,207.3h22.1c4.2,0,7.6,3.7,7.6,8.3V399c0,4.5-3.4,8.3-7.6,8.3h-22.1c-4.2,0-7.6-3.7-7.6-8.3V215.6
		C710.8,211.1,714.2,207.3,718.4,207.3"/>
	<path class="st2" d="M756.6,207.3h22.1c4.2,0,7.6,3.7,7.6,8.3V399c0,4.5-3.4,8.3-7.6,8.3h-22.1c-4.2,0-7.6-3.7-7.6-8.3V215.6
		C749,211.1,752.4,207.3,756.6,207.3"/>
	<path class="st2" d="M794.8,207.3h22.1c4.2,0,7.6,3.7,7.6,8.3V399c0,4.5-3.4,8.3-7.6,8.3h-22.1c-4.2,0-7.6-3.7-7.6-8.3V215.6
		C787.2,211.1,790.6,207.3,794.8,207.3"/>
	<path class="st2" d="M833,207.3h22.1c4.2,0,7.6,3.7,7.6,8.3V399c0,4.5-3.4,8.3-7.6,8.3H833c-4.2,0-7.6-3.7-7.6-8.3V215.6
		C825.4,211.1,828.8,207.3,833,207.3"/>
	<path class="st2" d="M871.2,207.3h22.1c4.2,0,7.6,3.7,7.6,8.3V399c0,4.5-3.4,8.3-7.6,8.3h-22.1c-4.2,0-7.6-3.7-7.6-8.3V215.6
		C863.6,211.1,867,207.3,871.2,207.3"/>
	<path class="st2" d="M909.4,207.3h22.1c4.2,0,7.6,3.7,7.6,8.3V399c0,4.5-3.4,8.3-7.6,8.3h-22.1c-4.2,0-7.6-3.7-7.6-8.3V215.6
		C901.8,211.1,905.2,207.3,909.4,207.3"/>
	<path class="st2" d="M947.6,207.3h22.1c4.2,0,7.6,3.7,7.6,8.3V399c0,4.5-3.4,8.3-7.6,8.3h-22.1c-4.2,0-7.6-3.7-7.6-8.3V215.6
		C940,211.1,943.4,207.3,947.6,207.3"/>
	<path class="st1" d="M130.5,207.3h13.9c2.6,0,4.8,2.3,4.8,5.2V328c0,2.9-2.2,5.2-4.8,5.2h-13.9c-2.6,0-4.8-2.3-4.8-5.2V212.5
		C125.7,209.7,127.8,207.3,130.5,207.3"/>
	<path class="st1" d="M168.9,207.3h13.9c2.6,0,4.8,2.3,4.8,5.2V328c0,2.9-2.2,5.2-4.8,5.2h-13.9c-2.6,0-4.8-2.3-4.8-5.2V212.5
		C164.1,209.7,166.3,207.3,168.9,207.3"/>
	<path class="st1" d="M245.3,207.3h13.9c2.6,0,4.8,2.3,4.8,5.2V328c0,2.9-2.2,5.2-4.8,5.2h-13.9c-2.6,0-4.8-2.3-4.8-5.2V212.5
		C240.5,209.7,242.7,207.3,245.3,207.3"/>
	<path class="st1" d="M283.5,207.3h13.9c2.6,0,4.8,2.3,4.8,5.2V328c0,2.9-2.2,5.2-4.8,5.2h-13.9c-2.6,0-4.8-2.3-4.8-5.2V212.5
		C278.8,209.7,280.9,207.3,283.5,207.3"/>
	<path class="st1" d="M320.9,207.3h13.9c2.6,0,4.8,2.3,4.8,5.2V328c0,2.9-2.2,5.2-4.8,5.2h-13.9c-2.6,0-4.8-2.3-4.8-5.2V212.5
		C316.1,209.7,318.2,207.3,320.9,207.3"/>
	<path class="st1" d="M398,207.3H412c2.6,0,4.8,2.3,4.8,5.2V328c0,2.9-2.2,5.2-4.8,5.2H398c-2.6,0-4.8-2.3-4.8-5.2V212.5
		C393.2,209.7,395.4,207.3,398,207.3"/>
	<path class="st1" d="M436.5,207.3h13.9c2.6,0,4.8,2.3,4.8,5.2V328c0,2.9-2.2,5.2-4.8,5.2h-13.9c-2.6,0-4.8-2.3-4.8-5.2V212.5
		C431.7,209.7,433.9,207.3,436.5,207.3"/>
	<path class="st1" d="M512.9,207.3h13.9c2.6,0,4.8,2.3,4.8,5.2V328c0,2.9-2.2,5.2-4.8,5.2h-13.9c-2.6,0-4.8-2.3-4.8-5.2V212.5
		C508.1,209.7,510.3,207.3,512.9,207.3"/>
	<path class="st1" d="M551.1,207.3H565c2.6,0,4.8,2.3,4.8,5.2V328c0,2.9-2.2,5.2-4.8,5.2h-13.9c-2.6,0-4.8-2.3-4.8-5.2V212.5
		C546.3,209.7,548.5,207.3,551.1,207.3"/>
	<path class="st1" d="M588.5,207.3h13.9c2.6,0,4.8,2.3,4.8,5.2V328c0,2.9-2.2,5.2-4.8,5.2h-13.9c-2.6,0-4.8-2.3-4.8-5.2V212.5
		C583.7,209.7,585.8,207.3,588.5,207.3"/>
	<path class="st1" d="M662,207.3h13.9c2.6,0,4.8,2.3,4.8,5.2V328c0,2.9-2.2,5.2-4.8,5.2H662c-2.6,0-4.8-2.3-4.8-5.2V212.5
		C657.2,209.7,659.3,207.3,662,207.3"/>
	<path class="st1" d="M700.4,207.3h13.9c2.6,0,4.8,2.3,4.8,5.2V328c0,2.9-2.2,5.2-4.8,5.2h-13.9c-2.6,0-4.8-2.3-4.8-5.2V212.5
		C695.6,209.7,697.8,207.3,700.4,207.3"/>
	<path class="st1" d="M933,207.3H947c2.6,0,4.8,2.3,4.8,5.2V328c0,2.9-2.2,5.2-4.8,5.2H933c-2.6,0-4.8-2.3-4.8-5.2V212.5
		C928.3,209.7,930.4,207.3,933,207.3"/>
	<path class="st1" d="M776.8,207.3h13.9c2.6,0,4.8,2.3,4.8,5.2V328c0,2.9-2.2,5.2-4.8,5.2h-13.9c-2.6,0-4.8-2.3-4.8-5.2V212.5
		C772,209.7,774.2,207.3,776.8,207.3"/>
	<path class="st1" d="M815,207.3H829c2.6,0,4.8,2.3,4.8,5.2V328c0,2.9-2.2,5.2-4.8,5.2H815c-2.6,0-4.8-2.3-4.8-5.2V212.5
		C810.2,209.7,812.4,207.3,815,207.3"/>
	<path class="st1" d="M852.4,207.3h13.9c2.6,0,4.8,2.3,4.8,5.2V328c0,2.9-2.2,5.2-4.8,5.2h-13.9c-2.6,0-4.8-2.3-4.8-5.2V212.5
		C847.6,209.7,849.7,207.3,852.4,207.3"/>
	<path class="st3" d="M760.4,59L760.4,59c2.5,0,4.5,2.2,4.5,4.9v87.8c0,2.7-2,4.9-4.5,4.9h0c-2.5,0-4.5-2.2-4.5-4.9V63.9
		C755.9,61.2,757.9,59,760.4,59"/>
	<rect x="759.2" y="65.5" class="st1" width="2.3" height="82.3"/>
	<rect x="757" y="92.1" class="st4" width="7.2" height="15.9"/>
	<rect x="757" y="98.9" class="st3" width="7.2" height="2.4"/>
	<path class="st3" d="M781.3,59L781.3,59c2.5,0,4.5,2.2,4.5,4.9v87.8c0,2.7-2,4.9-4.5,4.9c-2.5,0-4.5-2.2-4.5-4.9V63.9
		C776.8,61.2,778.8,59,781.3,59"/>
	<rect x="780.2" y="65.5" class="st1" width="2.3" height="82.3"/>
	<rect x="777.9" y="92.1" class="st4" width="7.2" height="15.9"/>
	<rect x="777.9" y="98.9" class="st3" width="7.2" height="2.4"/>
	<path class="st3" d="M802.3,59L802.3,59c2.5,0,4.5,2.2,4.5,4.9v87.8c0,2.7-2,4.9-4.5,4.9h0c-2.5,0-4.5-2.2-4.5-4.9V63.9
		C797.7,61.2,799.8,59,802.3,59"/>
	<rect x="801.1" y="65.5" class="st1" width="2.3" height="82.3"/>
	<rect x="798.9" y="92.1" class="st4" width="7.2" height="15.9"/>
	<rect x="798.9" y="98.9" class="st3" width="7.2" height="2.4"/>
	<path class="st3" d="M823.2,59L823.2,59c2.5,0,4.5,2.2,4.5,4.9v87.8c0,2.7-2,4.9-4.5,4.9h0c-2.5,0-4.5-2.2-4.5-4.9V63.9
		C818.7,61.2,820.7,59,823.2,59"/>
	<rect x="822.1" y="65.5" class="st1" width="2.3" height="82.3"/>
	<rect x="819.8" y="92.1" class="st4" width="7.2" height="15.9"/>
	<rect x="819.8" y="98.9" class="st3" width="7.2" height="2.4"/>
	<path class="st3" d="M844.1,59L844.1,59c2.5,0,4.5,2.2,4.5,4.9v87.8c0,2.7-2,4.9-4.5,4.9c-2.5,0-4.5-2.2-4.5-4.9V63.9
		C839.6,61.2,841.7,59,844.1,59"/>
	<rect x="843" y="65.5" class="st1" width="2.3" height="82.3"/>
	<rect x="840.8" y="92.1" class="st4" width="7.1" height="15.9"/>
	<rect x="840.8" y="98.9" class="st3" width="7.1" height="2.4"/>
	<path class="st3" d="M865.1,59L865.1,59c2.5,0,4.5,2.2,4.5,4.9v87.8c0,2.7-2,4.9-4.5,4.9l0,0c-2.5,0-4.5-2.2-4.5-4.9V63.9
		C860.6,61.2,862.6,59,865.1,59"/>
	<rect x="864" y="65.5" class="st1" width="2.3" height="82.3"/>
	<rect x="861.7" y="92.1" class="st4" width="7.2" height="15.9"/>
	<rect x="861.7" y="98.9" class="st3" width="7.2" height="2.4"/>
	<path class="st3" d="M886,59L886,59c2.5,0,4.5,2.2,4.5,4.9v87.8c0,2.7-2,4.9-4.5,4.9c-2.5,0-4.5-2.2-4.5-4.9V63.9
		C881.5,61.2,883.5,59,886,59"/>
	<rect x="884.9" y="65.5" class="st1" width="2.3" height="82.3"/>
	<rect x="882.6" y="92.1" class="st4" width="7.2" height="15.9"/>
	<rect x="882.6" y="98.9" class="st3" width="7.2" height="2.4"/>
	<path class="st3" d="M907,59L907,59c2.5,0,4.5,2.2,4.5,4.9v87.8c0,2.7-2,4.9-4.5,4.9c-2.5,0-4.5-2.2-4.5-4.9V63.9
		C902.5,61.2,904.5,59,907,59"/>
	<rect x="905.8" y="65.5" class="st1" width="2.3" height="82.3"/>
	<rect x="903.6" y="92.1" class="st4" width="7.1" height="15.9"/>
	<rect x="903.6" y="98.9" class="st3" width="7.1" height="2.4"/>
	<path class="st5" d="M706.6,146.3c-6.5,7.8-17.7,8.4-24.9,1.3c-7.2-7.1-7.7-19.2-1.2-27c6.5-7.8,17.7-8.4,24.9-1.3
		C712.6,126.4,713.1,138.5,706.6,146.3"/>
	<path class="st6" d="M704,143.8c-5.3,6.3-14.2,6.8-20,1c-5.8-5.7-6.2-15.4-1-21.7c5.3-6.3,14.2-6.8,20-1
		C708.9,127.8,709.3,137.5,704,143.8"/>
	<path class="st4" d="M701.5,141.3c-4,4.8-10.8,5.1-15.1,0.8c-4.4-4.3-4.7-11.7-0.7-16.5c4-4.8,10.8-5.1,15.1-0.8
		C705.2,129.2,705.5,136.5,701.5,141.3"/>
	<path class="st7" d="M699,138.8c-2.7,3.2-7.3,3.5-10.3,0.5c-3-2.9-3.2-7.9-0.5-11.2c2.7-3.2,7.3-3.5,10.3-0.5
		C701.4,130.5,701.7,135.5,699,138.8"/>
	<path class="st8" d="M704.8,144.6L704.8,144.6c-0.8,0.9-2.1,1-2.9,0.2l-7.7-7.6c-0.8-0.8-0.9-2.2-0.1-3.1h0c0.8-0.9,2.1-1,2.9-0.1
		l7.7,7.6C705.5,142.3,705.6,143.7,704.8,144.6"/>
	<path class="st5" d="M659,146.3c-6.5,7.8-17.7,8.4-24.9,1.3c-7.2-7.1-7.7-19.2-1.2-27c6.5-7.8,17.7-8.4,24.9-1.3
		C665,126.4,665.5,138.5,659,146.3"/>
	<path class="st6" d="M656.4,143.8c-5.3,6.3-14.2,6.8-20,1c-5.8-5.7-6.2-15.4-1-21.7c5.3-6.3,14.2-6.8,20-1
		C661.3,127.8,661.7,137.5,656.4,143.8"/>
	<path class="st4" d="M653.9,141.3c-4,4.8-10.8,5.1-15.1,0.8c-4.4-4.3-4.7-11.7-0.7-16.5c4-4.8,10.8-5.1,15.1-0.8
		C657.6,129.2,657.9,136.5,653.9,141.3"/>
	<path class="st7" d="M651.4,138.8c-2.7,3.2-7.3,3.5-10.3,0.5c-3-2.9-3.2-7.9-0.5-11.2c2.7-3.2,7.3-3.5,10.3-0.5
		C653.8,130.5,654.1,135.5,651.4,138.8"/>
	<path class="st8" d="M657.2,144.6L657.2,144.6c-0.8,0.9-2.1,1-2.9,0.2l-7.7-7.6c-0.8-0.8-0.9-2.2-0.1-3.1h0c0.8-0.9,2.1-1,2.9-0.1
		l7.7,7.6C657.9,142.3,658,143.7,657.2,144.6"/>
	<path class="st5" d="M611.4,146.3c-6.5,7.8-17.7,8.4-24.9,1.3c-7.2-7.1-7.7-19.2-1.2-27c6.5-7.8,17.7-8.4,24.9-1.3
		C617.4,126.4,617.9,138.5,611.4,146.3"/>
	<path class="st6" d="M608.8,143.8c-5.3,6.3-14.2,6.8-20,1c-5.8-5.7-6.2-15.4-1-21.7c5.3-6.3,14.2-6.8,20-1
		C613.7,127.8,614.1,137.5,608.8,143.8"/>
	<path class="st4" d="M606.3,141.3c-4,4.8-10.8,5.1-15.1,0.8c-4.4-4.3-4.7-11.7-0.7-16.5c4-4.8,10.8-5.1,15.1-0.8
		C609.9,129.2,610.3,136.5,606.3,141.3"/>
	<path class="st7" d="M603.7,138.8c-2.7,3.2-7.3,3.5-10.3,0.5c-3-2.9-3.2-7.9-0.5-11.2c2.7-3.2,7.3-3.5,10.3-0.5
		C606.2,130.5,606.5,135.5,603.7,138.8"/>
	<path class="st8" d="M609.6,144.6L609.6,144.6c-0.8,0.9-2.1,1-2.9,0.2l-7.7-7.6c-0.8-0.8-0.9-2.2-0.1-3.1c0.8-0.9,2.1-1,2.9-0.1
		l7.7,7.6C610.3,142.3,610.4,143.7,609.6,144.6"/>
	<path class="st5" d="M706.6,94.9c-6.5,7.8-17.7,8.4-24.9,1.3c-7.2-7.1-7.7-19.2-1.2-27c6.5-7.8,17.7-8.4,24.9-1.3
		C712.6,75,713.1,87.1,706.6,94.9"/>
	<path class="st6" d="M704,92.4c-5.3,6.3-14.2,6.8-20,1c-5.8-5.7-6.2-15.4-1-21.7c5.3-6.3,14.2-6.8,20-1
		C708.9,76.4,709.3,86.1,704,92.4"/>
	<path class="st4" d="M701.5,89.9c-4,4.8-10.8,5.1-15.1,0.8c-4.4-4.3-4.7-11.7-0.7-16.5c4-4.8,10.8-5.1,15.1-0.8
		C705.2,77.8,705.5,85.1,701.5,89.9"/>
	<path class="st7" d="M699,87.4c-2.7,3.2-7.3,3.5-10.3,0.5c-3-2.9-3.2-7.9-0.5-11.2c2.7-3.2,7.3-3.5,10.3-0.5
		C701.4,79.1,701.7,84.1,699,87.4"/>
	<path class="st8" d="M704.8,93.2L704.8,93.2c-0.8,0.9-2.1,1-2.9,0.2l-7.7-7.6c-0.8-0.8-0.9-2.2-0.1-3.1l0,0c0.8-0.9,2.1-1,2.9-0.2
		l7.7,7.6C705.5,90.9,705.6,92.3,704.8,93.2"/>
	<path class="st5" d="M659,94.9c-6.5,7.8-17.7,8.4-24.9,1.3c-7.2-7.1-7.7-19.2-1.2-27c6.5-7.8,17.7-8.4,24.9-1.3
		C665,75,665.5,87.1,659,94.9"/>
	<path class="st6" d="M656.4,92.4c-5.3,6.3-14.2,6.8-20,1c-5.8-5.7-6.2-15.4-1-21.7c5.3-6.3,14.2-6.8,20-1
		C661.3,76.4,661.7,86.1,656.4,92.4"/>
	<path class="st4" d="M653.9,89.9c-4,4.8-10.8,5.1-15.1,0.8c-4.4-4.3-4.7-11.7-0.7-16.5c4-4.8,10.8-5.1,15.1-0.8
		C657.6,77.8,657.9,85.1,653.9,89.9"/>
	<path class="st7" d="M651.4,87.4c-2.7,3.2-7.3,3.5-10.3,0.5c-3-2.9-3.2-7.9-0.5-11.2c2.7-3.2,7.3-3.5,10.3-0.5
		C653.8,79.1,654.1,84.1,651.4,87.4"/>
	<path class="st8" d="M657.2,93.2L657.2,93.2c-0.8,0.9-2.1,1-2.9,0.2l-7.7-7.6c-0.8-0.8-0.9-2.2-0.1-3.1l0,0c0.8-0.9,2.1-1,2.9-0.2
		l7.7,7.6C657.9,90.9,658,92.3,657.2,93.2"/>
	<path class="st5" d="M611.4,94.9c-6.5,7.8-17.7,8.4-24.9,1.3c-7.2-7.1-7.7-19.2-1.2-27c6.5-7.8,17.7-8.4,24.9-1.3
		C617.4,75,617.9,87.1,611.4,94.9"/>
	<path class="st6" d="M608.8,92.4c-5.3,6.3-14.2,6.8-20,1c-5.8-5.7-6.2-15.4-1-21.7c5.3-6.3,14.2-6.8,20-1
		C613.7,76.4,614.1,86.1,608.8,92.4"/>
	<path class="st4" d="M606.3,89.9c-4,4.8-10.8,5.1-15.1,0.8c-4.4-4.3-4.7-11.7-0.7-16.5c4-4.8,10.8-5.1,15.1-0.8
		C609.9,77.8,610.3,85.1,606.3,89.9"/>
	<path class="st7" d="M603.7,87.4c-2.7,3.2-7.3,3.5-10.3,0.5c-3-2.9-3.2-7.9-0.5-11.2c2.7-3.2,7.3-3.5,10.3-0.5
		C606.2,79.1,606.5,84.1,603.7,87.4"/>
	<path class="st8" d="M609.6,93.2L609.6,93.2c-0.8,0.9-2.1,1-2.9,0.2l-7.7-7.6c-0.8-0.8-0.9-2.2-0.1-3.1v0c0.8-0.9,2.1-1,2.9-0.2
		l7.7,7.6C610.3,90.9,610.4,92.3,609.6,93.2"/>
	<path class="st5" d="M181.6,146.3c-6.5,7.8-17.7,8.4-24.9,1.3c-7.2-7.1-7.7-19.2-1.2-27c6.5-7.8,17.7-8.4,24.9-1.3
		C187.6,126.4,188.2,138.5,181.6,146.3"/>
	<path class="st6" d="M179.1,143.8c-5.3,6.3-14.2,6.8-20,1c-5.8-5.7-6.2-15.4-1-21.7c5.3-6.3,14.2-6.8,20-1
		C183.9,127.8,184.3,137.5,179.1,143.8"/>
	<path class="st4" d="M176.5,141.3c-4,4.8-10.8,5.1-15.1,0.8c-4.4-4.3-4.7-11.7-0.7-16.5c4-4.8,10.8-5.1,15.1-0.8
		C180.2,129.2,180.5,136.5,176.5,141.3"/>
	<path class="st7" d="M174,138.8c-2.7,3.2-7.3,3.5-10.3,0.5c-3-2.9-3.2-7.9-0.5-11.2c2.7-3.2,7.3-3.5,10.3-0.5
		C176.5,130.5,176.7,135.5,174,138.8"/>
	<path class="st8" d="M179.9,144.6L179.9,144.6c-0.8,0.9-2.1,1-2.9,0.2l-7.7-7.6c-0.8-0.8-0.9-2.2-0.1-3.1h0c0.8-0.9,2.1-1,2.9-0.1
		l7.7,7.6C180.6,142.3,180.6,143.7,179.9,144.6"/>
	<path class="st5" d="M134,146.3c-6.5,7.8-17.7,8.4-24.9,1.3c-7.2-7.1-7.7-19.2-1.2-27c6.5-7.8,17.7-8.4,24.9-1.3
		C140,126.4,140.6,138.5,134,146.3"/>
	<path class="st6" d="M131.5,143.8c-5.3,6.3-14.2,6.8-20,1c-5.8-5.7-6.2-15.4-1-21.7c5.3-6.3,14.2-6.8,20-1
		C136.3,127.8,136.7,137.5,131.5,143.8"/>
	<path class="st4" d="M128.9,141.3c-4,4.8-10.8,5.1-15.1,0.8c-4.4-4.3-4.7-11.7-0.7-16.5c4-4.8,10.8-5.1,15.1-0.8
		C132.6,129.2,132.9,136.5,128.9,141.3"/>
	<path class="st7" d="M126.4,138.8c-2.7,3.2-7.3,3.5-10.3,0.5c-3-2.9-3.2-7.9-0.5-11.2c2.7-3.2,7.3-3.5,10.3-0.5
		C128.9,130.5,129.1,135.5,126.4,138.8"/>
	<path class="st8" d="M132.3,144.6L132.3,144.6c-0.8,0.9-2.1,1-2.9,0.2l-7.7-7.6c-0.8-0.8-0.9-2.2-0.1-3.1l0,0
		c0.8-0.9,2.1-1,2.9-0.1l7.7,7.6C133,142.3,133,143.7,132.3,144.6"/>
	<path class="st5" d="M86.4,146.3c-6.5,7.8-17.7,8.4-24.9,1.3c-7.2-7.1-7.7-19.2-1.2-27c6.5-7.8,17.7-8.4,24.9-1.3
		C92.4,126.4,93,138.5,86.4,146.3"/>
	<path class="st6" d="M83.9,143.8c-5.3,6.3-14.2,6.8-20,1c-5.8-5.7-6.2-15.4-1-21.7c5.3-6.3,14.2-6.8,20-1
		C88.7,127.8,89.1,137.5,83.9,143.8"/>
	<path class="st4" d="M81.3,141.3c-4,4.8-10.8,5.1-15.1,0.8c-4.4-4.3-4.7-11.7-0.7-16.5c4-4.8,10.8-5.1,15.1-0.8
		C85,129.2,85.3,136.5,81.3,141.3"/>
	<path class="st7" d="M78.8,138.8c-2.7,3.2-7.3,3.5-10.3,0.5c-3-2.9-3.2-7.9-0.5-11.2c2.7-3.2,7.3-3.5,10.3-0.5
		C81.3,130.5,81.5,135.5,78.8,138.8"/>
	<path class="st8" d="M84.7,144.6L84.7,144.6c-0.8,0.9-2.1,1-2.9,0.2l-7.7-7.6c-0.8-0.8-0.9-2.2-0.1-3.1h0c0.8-0.9,2.1-1,2.9-0.1
		l7.7,7.6C85.4,142.3,85.4,143.7,84.7,144.6"/>
	<path class="st5" d="M181.6,94.9c-6.5,7.8-17.7,8.4-24.9,1.3c-7.2-7.1-7.7-19.2-1.2-27c6.5-7.8,17.7-8.4,24.9-1.3
		C187.6,75,188.2,87.1,181.6,94.9"/>
	<path class="st6" d="M179.1,92.4c-5.3,6.3-14.2,6.8-20,1c-5.8-5.7-6.2-15.4-1-21.7c5.3-6.3,14.2-6.8,20-1
		C183.9,76.4,184.3,86.1,179.1,92.4"/>
	<path class="st4" d="M176.5,89.9c-4,4.8-10.8,5.1-15.1,0.8c-4.4-4.3-4.7-11.7-0.7-16.5c4-4.8,10.8-5.1,15.1-0.8
		C180.2,77.8,180.5,85.1,176.5,89.9"/>
	<path class="st7" d="M174,87.4c-2.7,3.2-7.3,3.5-10.3,0.5c-3-2.9-3.2-7.9-0.5-11.2c2.7-3.2,7.3-3.5,10.3-0.5
		C176.5,79.1,176.7,84.1,174,87.4"/>
	<path class="st8" d="M179.9,93.2L179.9,93.2c-0.8,0.9-2.1,1-2.9,0.2l-7.7-7.6c-0.8-0.8-0.9-2.2-0.1-3.1l0,0c0.8-0.9,2.1-1,2.9-0.2
		l7.7,7.6C180.6,90.9,180.6,92.3,179.9,93.2"/>
	<path class="st5" d="M134,94.9c-6.5,7.8-17.7,8.4-24.9,1.3c-7.2-7.1-7.7-19.2-1.2-27c6.5-7.8,17.7-8.4,24.9-1.3
		C140,75,140.6,87.1,134,94.9"/>
	<path class="st6" d="M131.5,92.4c-5.3,6.3-14.2,6.8-20,1c-5.8-5.7-6.2-15.4-1-21.7c5.3-6.3,14.2-6.8,20-1
		C136.3,76.4,136.7,86.1,131.5,92.4"/>
	<path class="st4" d="M128.9,89.9c-4,4.8-10.8,5.1-15.1,0.8c-4.4-4.3-4.7-11.7-0.7-16.5c4-4.8,10.8-5.1,15.1-0.8
		C132.6,77.8,132.9,85.1,128.9,89.9"/>
	<path class="st7" d="M126.4,87.4c-2.7,3.2-7.3,3.5-10.3,0.5c-3-2.9-3.2-7.9-0.5-11.2c2.7-3.2,7.3-3.5,10.3-0.5
		C128.9,79.1,129.1,84.1,126.4,87.4"/>
	<path class="st8" d="M132.3,93.2L132.3,93.2c-0.8,0.9-2.1,1-2.9,0.2l-7.7-7.6c-0.8-0.8-0.9-2.2-0.1-3.1v0c0.8-0.9,2.1-1,2.9-0.2
		l7.7,7.6C133,90.9,133,92.3,132.3,93.2"/>
	<path class="st5" d="M86.4,94.9c-6.5,7.8-17.7,8.4-24.9,1.3c-7.2-7.1-7.7-19.2-1.2-27c6.5-7.8,17.7-8.4,24.9-1.3
		C92.4,75,93,87.1,86.4,94.9"/>
	<path class="st6" d="M83.9,92.4c-5.3,6.3-14.2,6.8-20,1c-5.8-5.7-6.2-15.4-1-21.7c5.3-6.3,14.2-6.8,20-1
		C88.7,76.4,89.1,86.1,83.9,92.4"/>
	<path class="st4" d="M81.3,89.9c-4,4.8-10.8,5.1-15.1,0.8c-4.4-4.3-4.7-11.7-0.7-16.5c4-4.8,10.8-5.1,15.1-0.8
		C85,77.8,85.3,85.1,81.3,89.9"/>
	<path class="st7" d="M78.8,87.4c-2.7,3.2-7.3,3.5-10.3,0.5c-3-2.9-3.2-7.9-0.5-11.2c2.7-3.2,7.3-3.5,10.3-0.5
		C81.3,79.1,81.5,84.1,78.8,87.4"/>
	<path class="st8" d="M84.7,93.2L84.7,93.2c-0.8,0.9-2.1,1-2.9,0.2l-7.7-7.6c-0.8-0.8-0.9-2.2-0.1-3.1l0,0c0.8-0.9,2.1-1,2.9-0.2
		l7.7,7.6C85.4,90.9,85.4,92.3,84.7,93.2"/>
	<path class="st3" d="M545.1,50.7H221.9c-4.1,0-7.4,3.6-7.4,8.1v97.9c0,4.5,3.4,8.1,7.4,8.1h323.2c4.1,0,7.4-3.6,7.4-8.1V58.8
		C552.6,54.3,549.2,50.7,545.1,50.7"/>
	<path class="st6" d="M221.3,56.9h324.5c0.6,0,1.1,0.5,1.1,1.2v99.3c0,0.7-0.5,1.2-1.1,1.2H221.3c-0.6,0-1.1-0.5-1.1-1.2V58.1
		C220.1,57.5,220.6,56.9,221.3,56.9"/>
	<rect x="225.9" y="63.1" class="st7" width="315.3" height="89.3"/>
</g>
</svg>
